<svg width="300" height="300" viewBox="0 0 300 300" fill="none" xmlns="http://www.w3.org/2000/svg">
<path fill-rule="evenodd" clip-rule="evenodd" d="M48.3 77.5455V93.1705H79.1932C87.053 93.1705 93.3741 94.3779 98.1563 96.7927C102.938 99.1601 106.419 102.522 108.597 106.878C110.775 111.234 111.864 116.324 111.864 122.148C111.864 127.972 110.775 132.991 108.597 137.205C106.466 141.371 103.009 144.591 98.2273 146.864C93.4924 149.136 87.2424 150.273 79.4773 150.273H48.3V166.182H80.0455C81.3055 166.182 82.5405 166.159 83.7502 166.112L114.42 223H134.875L102.017 163.022C104.075 162.321 106.008 161.504 107.815 160.571C115.06 156.783 120.434 151.575 123.938 144.946C127.441 138.317 129.193 130.718 129.193 122.148C129.193 113.578 127.441 105.931 123.938 99.2075C120.434 92.484 115.036 87.2046 107.744 83.3694C100.453 79.4868 91.125 77.5455 79.7614 77.5455H48.3ZM257.975 123H275.589C274.263 115.519 271.848 108.867 268.344 103.043C264.841 97.1715 260.485 92.1999 255.276 88.1279C250.068 84.0086 244.22 80.8836 237.734 78.7529C231.294 76.6222 224.405 75.5569 217.066 75.5569C204.661 75.5569 193.629 78.5872 183.969 84.6478C174.31 90.7084 166.711 99.3258 161.171 110.5C155.631 121.674 152.862 134.932 152.862 150.273C152.862 165.614 155.631 178.871 161.171 190.046C166.711 201.22 174.31 209.837 183.969 215.898C193.629 221.958 204.661 224.989 217.066 224.989C224.405 224.989 231.294 223.923 237.734 221.793C244.22 219.662 250.068 216.561 255.276 212.489C260.485 208.369 264.841 203.374 268.344 197.503C271.848 191.632 274.263 184.979 275.589 177.546H257.975C256.933 182.564 255.111 187.015 252.506 190.898C249.95 194.733 246.825 197.976 243.131 200.628C239.486 203.232 235.437 205.197 230.987 206.523C226.536 207.849 221.896 208.511 217.066 208.511C208.259 208.511 200.281 206.286 193.131 201.835C186.029 197.385 180.371 190.827 176.157 182.162C171.99 173.497 169.907 162.867 169.907 150.273C169.907 137.678 171.99 127.048 176.157 118.384C180.371 109.719 186.029 103.161 193.131 98.7103C200.281 94.2595 208.259 92.0342 217.066 92.0342C221.896 92.0342 226.536 92.697 230.987 94.0228C235.437 95.3486 239.486 97.3372 243.131 99.9887C246.825 102.593 249.95 105.813 252.506 109.648C255.111 113.483 256.933 117.934 257.975 123Z" fill="black"/>
<circle cx="33.5" cy="85.5" r="10.5" fill="#0078FC"/>
<circle cx="33.5" cy="214.5" r="10.5" fill="#FF6A59"/>
<rect x="26" y="100" width="15" height="100" fill="black"/>
</svg>
