<svg width="300" height="300" viewBox="0 0 300 300" fill="none" xmlns="http://www.w3.org/2000/svg">
<path fill-rule="evenodd" clip-rule="evenodd" d="M48.6 79V219H48.6V164H75C76.1331 164 77.2521 163.973 78.3569 163.918L110.6 219H129.2L95.001 160.65C96.6428 160.048 98.2424 159.365 99.8 158.6C107.133 154.867 112.933 149.8 117.2 143.4C121.467 137 123.6 129.667 123.6 121.4C123.6 113.133 121.6 105.8 117.6 99.4C113.733 93 108.267 88 101.2 84.4C94.2667 80.8 86.2667 79 77.2 79H48.6ZM79.6 148.4H48.6V94.4H76.8C85.6 94.4 92.7333 96.9333 98.2 102C103.8 106.933 106.6 113.4 106.6 121.4C106.6 126.6 105.333 131.267 102.8 135.4C100.4 139.4 97.2 142.6 93.2 145C89.2 147.267 84.6667 148.4 79.6 148.4ZM180.395 212.2C190.662 218.333 202.462 221.4 215.795 221.4C224.195 221.4 232.262 219.8 239.995 216.6C247.862 213.4 254.795 208.933 260.795 203.2C266.929 197.467 271.729 190.933 275.195 183.6L260.395 176.2C257.729 182.067 254.062 187.267 249.395 191.8C244.862 196.333 239.729 199.933 233.995 202.6C228.262 205.133 222.195 206.4 215.795 206.4C205.929 206.4 197.062 204 189.195 199.2C181.462 194.267 175.395 187.467 170.995 178.8C166.595 170.133 164.395 160.2 164.395 149C164.395 137.8 166.529 127.933 170.795 119.4C175.195 110.867 181.262 104.2 188.995 99.4C196.729 94.4667 205.462 92 215.195 92C221.462 92 227.462 93.2 233.195 95.6C238.929 97.8667 244.129 101.067 248.795 105.2C253.462 109.333 257.129 114.2 259.795 119.8L274.395 112.4C271.062 105.333 266.329 99.1333 260.195 93.8C254.062 88.3333 247.129 84.1333 239.395 81.2C231.662 78.1333 223.595 76.6 215.195 76.6C201.995 76.6 190.262 79.7333 179.995 86C169.862 92.1333 161.862 100.667 155.995 111.6C150.262 122.4 147.395 134.867 147.395 149C147.395 163.133 150.329 175.667 156.195 186.6C162.062 197.4 170.129 205.933 180.395 212.2Z" fill="black"/>
<circle cx="33.5" cy="85.5" r="10.5" fill="#0078FC"/>
<circle cx="33.5" cy="214.5" r="10.5" fill="#FF6A59"/>
<rect x="26" y="100" width="15" height="100" fill="black"/>
</svg>
